<mxfile host="app.diagrams.net" modified="2023-07-20T09:21:39.619Z" agent="Mozilla/5.0 (Windows NT 10.0; Win64; x64) AppleWebKit/537.36 (KHTML, like Gecko) Chrome/114.0.0.0 Safari/537.36" version="21.6.3" etag="XXu74sPwTNvBLL7A5f6x" type="github">
  <diagram name="PÃ¡gina-1" id="T1AS-Sw4GF7pAAryYb4n">
    <mxGraphModel>
      <root>
        <mxCell id="0" />
        <mxCell id="1" parent="0" />
      </root>
    </mxGraphModel>
  </diagram>
</mxfile>
